<svg width="101" height="101" viewBox="0 0 101 101" fill="none" xmlns="http://www.w3.org/2000/svg">
<path opacity="0.75" d="M0.885498 50.4315C14.6012 36.711 36.8407 36.711 50.5564 50.4315C36.8407 64.152 14.6012 64.152 0.885498 50.4315ZM50.5564 50.4315C64.2721 64.152 86.5116 64.152 100.227 50.4315C86.4341 36.711 64.2721 36.711 50.5564 50.4315Z" fill="#EE3F2E"/>
<path opacity="0.75" d="M50.5564 100.12C36.8407 86.3993 36.8407 64.1519 50.5564 50.4314C64.2721 64.1519 64.2721 86.3993 50.5564 100.12ZM50.5564 50.4314C64.2721 36.7108 64.2721 14.4634 50.5564 0.74292C36.8407 14.4634 36.8407 36.7108 50.5564 50.4314Z" fill="#FED624"/>
<path opacity="0.75" d="M15.3761 85.5467C15.3761 66.1674 31.1065 50.4314 50.4789 50.4314C50.5564 69.8107 34.826 85.5467 15.3761 85.5467ZM50.5564 50.4314C69.9288 50.4314 85.6592 34.6954 85.6592 15.3162C66.2093 15.3162 50.5564 30.9746 50.5564 50.4314Z" fill="#F68A1D"/>
<path opacity="0.75" d="M15.3761 15.3162C34.7485 15.3162 50.4789 31.0521 50.4789 50.4314C31.1065 50.4314 15.3761 34.6954 15.3761 15.3162ZM50.5564 50.4314C50.5564 69.8107 66.2868 85.5467 85.6592 85.5467C85.6592 66.1674 69.9288 50.4314 50.5564 50.4314Z" fill="#FDC125"/>
<path opacity="0.75" d="M0.885498 50.4315C14.6012 36.711 36.8407 36.711 50.5564 50.4315C36.8407 64.152 14.6012 64.152 0.885498 50.4315ZM50.5564 50.4315C64.2721 64.152 86.5116 64.152 100.227 50.4315C86.4341 36.711 64.2721 36.711 50.5564 50.4315Z" fill="#EE3F2E"/>
<path opacity="0.75" d="M50.5564 100.12C36.8407 86.3993 36.8407 64.1519 50.5564 50.4314C64.2721 64.1519 64.2721 86.3993 50.5564 100.12ZM50.5564 50.4314C64.2721 36.7108 64.2721 14.4634 50.5564 0.74292C36.8407 14.4634 36.8407 36.7108 50.5564 50.4314Z" fill="#FED624"/>
<path opacity="0.75" d="M15.3761 85.5467C15.3761 66.1674 31.1065 50.4314 50.4789 50.4314C50.5564 69.8107 34.826 85.5467 15.3761 85.5467ZM50.5564 50.4314C69.9288 50.4314 85.6592 34.6954 85.6592 15.3162C66.2093 15.3162 50.5564 30.9746 50.5564 50.4314Z" fill="#F68A1D"/>
<path opacity="0.75" d="M15.3761 15.3162C34.7485 15.3162 50.4789 31.0521 50.4789 50.4314C31.1065 50.4314 15.3761 34.6954 15.3761 15.3162ZM50.5564 50.4314C50.5564 69.8107 66.2868 85.5467 85.6592 85.5467C85.6592 66.1674 69.9288 50.4314 50.5564 50.4314Z" fill="#FDC125"/>
</svg>
